<svg width="32" height="32" viewBox="0 0 32 32" fill="none" xmlns="http://www.w3.org/2000/svg">
<path d="M20.2392 12.7411C19.4004 12.235 19.0364 10.9639 19.406 10.0995C19.6975 9.41846 20.7468 7 20.7468 7H17.107L9 23.2325C9 23.2325 11.2734 21.6998 14.6289 23.1699C15.6781 23.6306 16.7828 24.0657 18.0269 23.9918C20.9558 23.8169 23.2975 21.5562 23.5633 18.6316C23.7993 16.0511 22.3363 14.0051 20.2406 12.7397L20.2392 12.7411ZM21.2032 18.4425C21.0383 20.1088 19.6904 21.4567 18.0241 21.6202C15.772 21.8434 13.8995 19.9695 14.1198 17.716C14.2848 16.0496 15.6326 14.7018 17.2989 14.5369C19.5525 14.3151 21.4264 16.189 21.2032 18.4425Z" fill="white"/>
<path d="M19.345 18.2506C19.2668 19.0425 18.6256 19.6837 17.8336 19.7605C16.763 19.8671 15.873 18.9757 15.9782 17.9051C16.0564 17.1132 16.6976 16.4719 17.4896 16.3937C18.5601 16.2885 19.4516 17.1785 19.345 18.2506Z" fill="#FF6D00"/>
</svg>
