<svg width="32" height="32" viewBox="0 0 32 32" fill="none" xmlns="http://www.w3.org/2000/svg">
<path d="M11.4346 16.5463L13.431 22.0721C13.431 22.0721 13.6806 22.5891 13.9479 22.5891C14.2151 22.5891 18.1905 18.4535 18.1905 18.4535L22.6111 9.91504L11.5058 15.1199L11.4346 16.5463Z" fill="#C8DAEA"/>
<path d="M14.0818 17.9634L13.6986 22.0364C13.6986 22.0364 13.5382 23.2845 14.7859 22.0364C16.0337 20.7884 17.228 19.826 17.228 19.826" fill="#A9C6D8"/>
<path d="M11.4708 16.7433L7.36411 15.4052C7.36411 15.4052 6.87332 15.2061 7.03135 14.7546C7.06389 14.6615 7.12951 14.5822 7.32583 14.4461C8.23577 13.8118 24.168 8.08537 24.168 8.08537C24.168 8.08537 24.6178 7.93378 24.8832 8.0346C24.9488 8.05492 25.0079 8.09231 25.0543 8.14294C25.1007 8.19357 25.1329 8.25563 25.1475 8.32277C25.1762 8.44136 25.1881 8.56336 25.1831 8.68526C25.1818 8.79071 25.1691 8.88845 25.1594 9.04172C25.0624 10.6074 22.1585 22.2922 22.1585 22.2922C22.1585 22.2922 21.9848 22.976 21.3623 22.9994C21.2094 23.0043 21.057 22.9784 20.9142 22.9232C20.7715 22.868 20.6413 22.7846 20.5315 22.678C19.31 21.6273 15.088 18.7899 14.1551 18.1659C14.134 18.1516 14.1163 18.1329 14.1031 18.1111C14.0899 18.0893 14.0815 18.065 14.0785 18.0397C14.0654 17.9739 14.137 17.8925 14.137 17.8925C14.137 17.8925 21.4885 11.3579 21.6841 10.6719C21.6993 10.6187 21.6421 10.5925 21.5652 10.6158C21.077 10.7954 12.6125 16.1407 11.6784 16.7307C11.6111 16.751 11.54 16.7553 11.4708 16.7433Z" fill="white"/>
</svg>
